<svg viewBox="0 0 800 800" height="800" width="800" id="svg847" version="1.1" xmlns="http://www.w3.org/2000/svg"
    xmlns:svg="http://www.w3.org/2000/svg" xmlns:rdf="http://www.w3.org/1999/02/22-rdf-syntax-ns#"
    xmlns:cc="http://creativecommons.org/ns#" xmlns:dc="http://purl.org/dc/elements/1.1/">
    <g transform="translate(-2.4489354,1.397365)" id="g855">
        <g id="g1564">
            <path id="path1420"
                d="M 402.45118,176.86059 A 221.74168,221.74168 0 0 0 180.70921,398.60257 221.74168,221.74168 0 0 0 402.45118,620.34456 221.74168,221.74168 0 0 0 624.19317,398.60257 221.74168,221.74168 0 0 0 402.45118,176.86059 Z m -0.78937,35.1916 a 186.55581,186.55581 0 0 1 0.78934,0 A 186.55581,186.55581 0 0 1 589.00157,398.60257 186.55581,186.55581 0 0 1 402.45118,585.15295 186.55581,186.55581 0 0 1 215.9008,398.60257 186.55581,186.55581 0 0 1 401.66181,212.05219 Z"
                fill="#000000" fill-opacity="1" stroke-width="9.47214"/>
            <g id="g1514" transform="matrix(9.3990965,0,0,9.3991139,1.024581,-1.75929)" fill="#000000" fill-opacity="1">
                <path
                    d="M 85.266106,42.595552 70.3929,36.1211 c 1.20931,1.45869 2.320134,2.771186 2.832032,4.552736 L 59.465166,40.369148 c -3.370289,0.336081 -9.914063,2.226563 -9.914063,2.226563 0,0 6.543774,1.89048 9.914063,2.226562 l 13.759765,-0.304688 c -0.511897,1.781551 -1.622721,3.094046 -2.83203,4.552734 z"
                    id="path1424" fill="#000000" fill-opacity="1" stroke="none" stroke-width="1px" stroke-linecap="butt"
                    stroke-linejoin="miter" stroke-opacity="1"/>
                <path id="path1437"
                    d="M 0.15154163,42.595711 15.024589,36.121101 c -1.209309,1.458689 -2.320133,2.771185 -2.832031,4.552735 l 13.759764,-0.304688 c 3.37029,0.336081 9.914063,2.226563 9.914063,2.226563 0,0 -6.543774,1.89048 -9.914063,2.226562 L 12.192558,44.517586 c 0.511897,1.781549 1.622722,3.094045 2.832031,4.552733 z"
                    fill="#000000" fill-opacity="1" stroke="none" stroke-width="1px" stroke-linecap="butt"
                    stroke-linejoin="miter" stroke-opacity="1"/>
                <path id="path1443"
                    d="m 42.708743,85.152913 6.47461,-14.873047 c -1.458688,1.209308 -2.771184,2.320132 -4.552734,2.832031 l 0.304688,-13.759766 c -0.336082,-3.370289 -2.226563,-9.914062 -2.226563,-9.914062 0,0 -1.89048,6.543773 -2.226562,9.914062 l 0.304686,13.759766 c -1.781549,-0.511898 -3.094044,-1.622723 -4.552733,-2.832031 z"
                    fill="#000000" fill-opacity="1" stroke="none" stroke-width="1px" stroke-linecap="butt"
                    stroke-linejoin="miter" stroke-opacity="1"/>
                <path
                    d="m 42.708743,0.03850629 6.47461,14.87304671 c -1.458688,-1.209308 -2.771184,-2.320132 -4.552734,-2.832031 l 0.304687,13.759766 c -0.336081,3.370289 -2.226563,9.914062 -2.226563,9.914062 0,0 -1.890479,-6.543773 -2.226561,-9.914062 l 0.304687,-13.759765 c -1.781551,0.511898 -3.094045,1.622722 -4.552734,2.83203 z"
                    id="path1445" fill="#000000" fill-opacity="1" stroke="none" stroke-width="1px" stroke-linecap="butt"
                    stroke-linejoin="miter" stroke-opacity="1"/>
            </g>
            <g id="g1524" transform="matrix(9.3991139,0,0,9.3991139,1.0245784,-1.75929)" fill="#000000"
                fill-opacity="1">
                <path
                    d="m 65.448161,19.856294 c -2.919577,2.257792 -5.979902,4.273025 -9.18134,6.10432 -1.831295,3.201438 -3.846528,6.261763 -6.10432,9.18134 2.919576,-2.257793 5.979901,-4.273025 9.181339,-6.104321 1.831296,-3.201438 3.846528,-6.261762 6.104321,-9.181339 z"
                    id="path1486" fill="#000000" fill-opacity="1" stroke="none" stroke-width="1px" stroke-linecap="butt"
                    stroke-linejoin="miter" stroke-opacity="1"/>
                <path id="path1498"
                    d="m 35.254988,50.049466 c -2.919576,2.257793 -5.979901,4.273025 -9.181339,6.104321 -1.831296,3.201438 -3.846528,6.261763 -6.104321,9.181339 2.919577,-2.257792 5.979902,-4.273025 9.18134,-6.10432 1.831295,-3.201438 3.846528,-6.261763 6.10432,-9.18134 z"
                    fill="#000000" fill-opacity="1" stroke="none" stroke-width="1px" stroke-linecap="butt"
                    stroke-linejoin="miter" stroke-opacity="1"/>
                <path id="path1504"
                    d="m 65.448161,65.335127 c -2.257793,-2.919576 -4.273025,-5.979901 -6.104321,-9.181339 -3.201438,-1.831296 -6.261762,-3.846528 -9.181339,-6.104321 2.257792,2.919577 4.273025,5.979902 6.10432,9.18134 3.201438,1.831295 6.261763,3.846528 9.18134,6.10432 z"
                    fill="#000000" fill-opacity="1" stroke="none" stroke-width="1px" stroke-linecap="butt"
                    stroke-linejoin="miter" stroke-opacity="1"/>
                <path
                    d="m 35.254989,35.141955 c -2.257793,-2.919577 -4.273026,-5.979902 -6.104321,-9.18134 -3.201438,-1.831295 -6.261763,-3.846528 -9.18134,-6.10432 2.257793,2.919577 4.273025,5.979901 6.104321,9.181339 3.201438,1.831296 6.261763,3.846528 9.18134,6.104321 z"
                    id="path1506" fill="#000000" fill-opacity="1" stroke="none" stroke-width="1px" stroke-linecap="butt"
                    stroke-linejoin="miter" stroke-opacity="1"/>
            </g>
        </g>
    </g>
</svg>
