<svg version="1.0" width="800.000000pt" height="800.000000pt" viewBox="0 0 800.000000 800.000000"
    preserveAspectRatio="xMidYMid meet" id="svg8" xmlns="http://www.w3.org/2000/svg"
    xmlns:svg="http://www.w3.org/2000/svg">
    <g transform="translate(0.000000,800.000000) scale(0.100000,-0.100000)" fill="#b98440" stroke="none" id="g6">
        <path
            d="M3871 7367 l-123 -354 -107 -12 c-148 -17 -372 -64 -523 -110 l-128 -38 -64 71 c-35 39 -74 83 -87 98 -89 102 -164 185 -167 183 -4 -3 15 -369 22 -438 l4 -38 -81 -41 c-45 -22 -84 -43 -87 -47 -3 -4 -17 -12 -33 -19 -47 -20 -247 -155 -349 -235 -83 -65 -101 -75 -120 -68 -13 5 -140 66 -283 136 -143 70 -288 140 -322 155 l-61 28 28 -61 c15 -34 85 -179 155 -322 70 -143 131 -270 136 -283 7 -19 -2 -36 -60 -110 -124 -159 -235 -332 -316 -493 -30 -59 -39 -69 -58 -65 -12 3 -80 7 -152 11 -71 3 -170 8 -220 11 -80 5 -88 4 -72 -9 10 -8 40 -35 66 -58 26 -24 76 -69 111 -99 35 -30 87 -77 115 -103 l52 -48 -28 -92 c-61 -191 -129 -530 -129 -638 0 -27 -25 -37 -562 -221 -150 -51 -166 -61 -125 -73 270 -81 687 -241 687 -264 0 -107 70 -455 128 -638 l29 -92 -71 -63 c-83 -74 -169 -151 -176 -158 -3 -3 -28 -26 -57 -52 -41 -38 -48 -48 -32 -48 23 0 335 18 412 24 l48 3 31 -61 c91 -180 269 -453 366 -558 l25 -27 -83 -173 c-46 -95 -113 -234 -149 -308 -36 -74 -74 -152 -83 -172 l-17 -37 72 33 c40 19 176 84 302 146 127 61 249 120 272 131 l43 19 87 -68 c159 -124 333 -236 491 -316 l67 -34 -12 -203 c-6 -112 -12 -222 -12 -243 l-1 -39 21 24 c11 13 35 40 53 59 17 19 80 90 139 156 l107 122 62 -20 c179 -58 463 -119 619 -133 l76 -7 30 -87 c29 -79 139 -395 194 -554 13 -37 26 -67 29 -67 3 0 61 160 129 355 120 342 126 355 150 355 107 0 455 70 638 128 l92 29 78 -87 c43 -47 114 -127 158 -177 44 -50 81 -90 83 -88 4 3 -16 393 -22 442 -5 32 -3 33 111 93 137 72 335 201 451 294 l84 67 271 -131 c150 -73 304 -147 344 -166 l72 -33 -23 52 c-27 58 -256 531 -286 590 -23 45 -26 36 60 147 92 117 207 294 276 428 l59 112 62 0 c34 0 142 -5 238 -11 97 -6 178 -9 180 -7 1 1 -77 74 -175 161 l-178 157 29 93 c48 151 97 367 114 502 2 17 6 60 10 96 l7 66 354 124 c195 68 354 126 354 129 0 3 -35 17 -78 32 -42 15 -162 57 -267 93 -388 135 -365 125 -365 160 0 104 -72 452 -134 648 l-24 77 115 103 c63 56 144 126 179 156 35 30 62 57 60 59 -4 3 -364 -15 -439 -22 l-38 -4 -40 76 c-92 178 -206 355 -320 498 -32 42 -58 79 -56 82 2 4 12 25 22 47 10 22 72 150 138 285 140 288 170 353 160 347 -5 -2 -160 -77 -346 -167 l-337 -162 -73 59 c-106 88 -336 240 -463 305 l-112 58 4 42 c5 58 24 393 24 421 -1 19 -2 20 -13 6 -15 -20 -136 -155 -163 -183 -11 -12 -48 -53 -83 -92 l-62 -71 -92 28 c-191 61 -530 129 -638 129 -25 0 -30 12 -150 355 -68 195 -126 355 -129 355 -3 0 -61 -159 -129 -353z m207 -1249 c40 -123 94 -290 121 -372 l48 -149 50 89 c28 49 81 145 118 214 147 270 197 361 200 358 4 -4 215 -836 215 -846 0 -10 21 21 122 188 52 85 135 220 184 300 l89 145 7 -50 c5 -27 37 -473 73 -990 36 -517 68 -959 71 -983 l5 -43 56 77 c30 43 83 118 118 168 68 100 296 426 461 661 58 83 156 222 217 309 62 88 117 161 122 163 12 4 131 -227 176 -342 349 -890 206 -1946 -360 -2665 l-19 -24 -30 34 c-53 63 -146 174 -187 225 -22 28 -55 67 -74 87 -18 21 -41 48 -49 60 -16 24 -93 115 -149 178 -17 19 -62 73 -99 120 -37 47 -72 90 -78 96 -6 7 -45 53 -86 103 l-75 91 -8 -38 c-4 -20 -36 -350 -72 -732 -36 -382 -68 -712 -71 -733 l-6 -38 -49 71 c-27 40 -49 73 -49 75 0 2 -55 88 -121 192 -67 103 -134 208 -149 232 l-28 44 -16 -54 c-72 -244 -205 -654 -213 -656 -6 -2 -21 18 -34 45 -46 94 -274 512 -279 512 -5 0 -52 -134 -204 -578 -27 -80 -24 -84 -77 76 -109 321 -173 502 -179 502 -5 0 -157 -280 -271 -498 -18 -34 -37 -61 -42 -59 -5 1 -58 160 -119 352 -60 193 -110 351 -111 352 -3 2 -290 -446 -296 -461 -2 -5 -8 -15 -13 -21 -5 -5 -26 -36 -48 -69 l-38 -58 -6 38 c-3 22 -35 352 -71 734 -36 382 -68 712 -72 733 l-8 38 -80 -97 c-44 -53 -104 -127 -134 -163 -29 -36 -71 -86 -92 -111 -103 -123 -168 -200 -204 -244 -155 -188 -214 -259 -263 -314 l-56 -64 -18 24 c-565 719 -710 1790 -359 2662 66 164 166 350 182 341 7 -5 119 -161 189 -263 20 -30 367 -525 519 -742 17 -25 53 -76 79 -115 26 -38 77 -112 114 -163 l67 -93 5 43 c3 24 35 464 71 978 36 514 69 960 73 990 l7 55 58 -95 c32 -52 76 -122 98 -155 21 -33 42 -67 46 -75 30 -69 189 -307 194 -292 4 9 52 199 109 422 56 223 103 406 105 408 3 3 41 -63 95 -163 15 -27 77 -142 138 -255 137 -253 137 -253 146 -214 7 28 84 269 184 572 25 78 49 142 52 142 4 0 39 -100 78 -222z"
            id="path4" />
    </g>
</svg>
